<?xml version="1.0" encoding="utf-8"?>
<!-- Generator: Adobe Illustrator 19.0.0, SVG Export Plug-In . SVG Version: 6.00 Build 0)  -->
<svg version="1.1" id="svg" xmlns="http://www.w3.org/2000/svg" xmlns:xlink="http://www.w3.org/1999/xlink" x="0px" y="0px"
	 viewBox="-97 220.9 400 400" style="enable-background:new -97 220.9 400 400;" xml:space="preserve">
<style type="text/css">
	.st0{fill:#C4CBCB;}
	.st1{display:none;fill:#FBFBFC;}
	.st2{fill:#DCDCDC;}
	.st3{fill:#E3E4E4;}
	.st4{fill:#ECECED;}
</style>
<path id="path0" class="st0" d="M-53.8,274.3c-6.8,0.7-13.5,3-18.7,6.5c-1.2,0.8-2.3,1.5-2.4,1.5c-0.7,0-9.8,9.1-9.8,9.8
	c0,0.1-0.4,0.8-1,1.6c-2.5,3.6-4.9,9.3-6.2,14.8c-1.1,4.5-1.1,220.4,0,225.1c1.2,5.1,3.6,10.8,5.9,13.9c0.5,0.7,0.9,1.3,0.9,1.5
	c0,1.1,6.8,7.9,10.7,10.7c7.3,5.2,13.6,7.3,23.8,7.9c11.3,0.7,309.7,0.2,313.4-0.5c12.7-2.6,20.6-8,29.7-20.4
	c1.7-2.3,4.2-8.8,5.4-14c0.9-3.9,1-219.4,0.1-223c-2.8-11.5-7.3-18.8-16.2-26.4c-0.8-0.7-1.5-1.2-1.7-1.2c-0.1,0-0.8-0.4-1.5-0.9
	c-4.8-3.5-12.3-6-20-6.8C253.5,273.8-49.1,273.8-53.8,274.3 M259.8,290.6c0.8,0.2,2.4,0.6,3.6,0.8c10.2,2.1,16.9,9.9,18.7,21.9
	c0.9,5.6,0.8,209.1,0,214.8c-1.1,7.6-6.6,17.9-9.5,17.9c-0.1,0-0.5,0.2-0.8,0.5c-1.5,1.5-7.5,3.7-12.2,4.4
	c-4.6,0.7-310.4,0.5-314.4-0.2c-11.1-2-17.7-7.9-20.6-18.4l-1.1-3.8V421.5c0-101.9,0-107.3,0.7-110.3c0.7-3.3,2.5-8.2,3-8.4
	c0.2-0.1,0.3-0.3,0.3-0.6c0-0.8,3.5-4.8,5.9-6.7c2.8-2.2,9.7-4.5,15.3-5C-46.1,289.9,258,290.1,259.8,290.6 M-26.3,315.5
	c-25.1,5.4-34.3,37-16,54.9c3.3,3.3,9.9,7.4,11.7,7.5c0.3,0,0.8,0.2,1,0.3c2.7,2.5,20,1.6,23-1.1c0.2-0.2,0.6-0.3,0.9-0.3
	c0.5,0,5.2-3,7-4.4c11.6-9.7,15.2-27.4,8.1-39.8c-0.6-1.1-1.3-2.4-1.6-2.9C2.8,319.7-13.9,312.8-26.3,315.5 M175.2,332.3
	c-0.5,0.4-1.8,1.5-2.9,2.4c-2.5,2.1-10.6,9-11.2,9.4c-0.2,0.2-1.3,1.1-2.3,2c-1.1,0.9-2.9,2.6-4.2,3.6c-1.2,1.1-3.1,2.6-4,3.5
	c-2.3,2-4.7,4-9.4,7.9c-2.1,1.8-3.9,3.3-4,3.4c-0.1,0.1-1.2,1.1-2.5,2.1c-1.3,1.1-2.7,2.3-3.3,2.7c-1.8,1.5-9.8,8.2-10.2,8.5
	c-0.2,0.2-1.3,1.1-2.3,2c-1.1,0.9-2.9,2.6-4.2,3.6c-1.2,1.1-3.1,2.6-4,3.5c-1.9,1.6-3.9,3.3-8.2,6.9c-1.5,1.2-3.9,3.3-5.4,4.6
	c-1.5,1.3-3.6,3.1-4.8,4c-3.4,2.8-10.5,8.8-11.1,9.4c-0.3,0.3-1.4,1.2-2.3,2c-2.2,1.8-5.6,4.8-6.8,5.9c-1.1,1-2.3,1-3.3,0.1
	c-0.7-0.6-2.7-2.3-6.9-5.6c-0.8-0.7-1.7-1.4-2-1.7c-0.3-0.3-0.7-0.5-0.9-0.5c-0.2,0-0.4-0.1-0.5-0.3c-0.1-0.2-3.2-2.8-7-5.9
	c-3.8-3.1-7-5.7-7-5.8c-0.1-0.2-0.4-0.3-0.6-0.3c-0.3,0-0.6-0.1-0.6-0.3c-0.1-0.2-3.5-3-12.9-10.5c-0.8-0.6-1.4-0.2-5.9,3.5
	c-2.4,2-9.8,8-11.9,9.5c-1,0.7-2.5,2-3.5,2.8c-2.4,2-9.8,8-11.9,9.5c-1,0.7-2.5,2-3.5,2.8c-0.9,0.8-4,3.3-6.9,5.5
	c-2.8,2.3-6.9,5.5-9,7.2c-2.1,1.7-4.1,3.3-4.4,3.5c-0.3,0.3-2,1.6-3.6,2.9c-1.7,1.3-5.4,4.3-8.3,6.6c-2.8,2.3-5.5,4.4-5.8,4.7
	c-1.9,1.5-4.9,4-6.2,5l-1.4,1.1v36.6v36.6l155-0.1l155-0.1l0.1-60.8l0.1-60.8l-1.8-1.8c-1.7-1.6-6.4-6-11-10c-2.5-2.2-2.3-2-6-5.4
	c-4.6-4.2-4.9-4.5-7.9-7c-1.5-1.3-3.8-3.3-5.2-4.6c-4.2-3.8-9.6-8.7-13.6-12.3c-2.1-1.9-4.6-4.1-5.6-5c-1-0.9-2.5-2.3-3.4-3.1
	c-0.9-0.8-2.1-1.9-2.6-2.3c-0.5-0.5-2.4-2.1-4.1-3.7c-1.7-1.6-4.2-3.7-5.4-4.9c-1.3-1.1-3.1-2.8-4-3.7s-3.5-3.1-5.6-5
	c-2.1-1.9-4.1-3.7-4.5-4.1C176.6,331.3,176.4,331.3,175.2,332.3"/>
<path id="path1" class="st1" d="M-97,420.9v200h200h200v-200v-200H103H-97V420.9 M262.9,274.4c6.1,1.1,16.1,5.3,17.8,7.5
	c0.1,0.1,1,0.8,1.9,1.6c7.8,5.9,13.6,15.7,15.8,26.3c0.6,3.2,1,210.7,0.3,217.7c-1.6,18-12.8,32.5-29.4,38.1
	c-7.4,2.5,4.7,2.4-168.3,2.2l-157.1-0.1l-4-1.1c-15-4-26.4-14.9-31.1-29.8c-2-6.3-1.9-1.6-1.8-118.1l0.1-108.2l1-3.5
	c5.2-17.7,17.8-29.5,35-32.6C-52.6,273.7,258.5,273.6,262.9,274.4 M-52.9,290.8c-4.7,0.7-7.4,1.6-12.1,4.1
	c-6,3.3-10.3,11.5-11.2,21.7c-0.5,5.8-0.5,201.8,0,208c1.5,16.8,9.4,24.9,25.8,26.4c5.4,0.5,302.6,0.5,307.2,0
	c14.8-1.6,22.6-8.5,24.9-22.1c1-5.8,0.9-211.1-0.1-216.7c-2.3-12.7-9.3-19.3-22.5-21.3C254.7,290.3-48.5,290.1-52.9,290.8
	 M-10.4,315.9c20,5.9,30.4,31.1,19.6,47.5c-0.5,0.8-0.9,1.5-0.9,1.7c0,1.2-6,7.3-9.5,9.6c-28.2,18.7-63.3-13.3-47.1-42.8
	c2.8-5.2,10.1-12.7,12.3-12.7c0.2,0,0.5-0.2,0.5-0.3c0.3-0.9,6.7-3.1,11.5-4C-21.4,314.3-13.8,314.9-10.4,315.9 M180.7,334.7
	c0.5,0.4,1.6,1.4,2.5,2.3c0.9,0.8,3.2,2.8,5,4.5c5.1,4.6,15.4,13.9,16.9,15.2c1.3,1.1,4.8,4.3,6.4,5.8c0.5,0.4,1.6,1.4,2.5,2.3
	c0.9,0.8,3.2,2.8,5,4.5c1.8,1.6,5.2,4.8,7.7,6.9s4.6,4.2,4.8,4.4c0.2,0.2,1.6,1.4,3.1,2.7c2.4,2.1,5.4,4.8,7.7,6.9
	c0.5,0.4,2.1,1.9,3.6,3.3c1.5,1.4,3.2,2.8,3.6,3.3s2.3,2.1,4,3.6c1.8,1.6,3.5,3.2,3.9,3.5c0.7,0.6,0.7,3.5,0.7,62.1v61.4l-155.2-0.1
	L-52.3,527v-36.8v-36.8l19.8-15.9c10.9-8.7,20.7-16.5,21.7-17.4c1.1-0.8,2.2-1.7,2.5-2c0.3-0.3,0.9-0.8,1.3-1.1
	c0.4-0.3,1.6-1.2,2.5-2c2.9-2.4,7.6-6.2,9.7-7.8c1.1-0.8,2-1.6,2.2-1.7c0.1-0.1,1-0.8,1.9-1.6c0.9-0.7,2.1-1.6,2.5-2
	c2.1-1.7,7-5.7,8.8-7c1.1-0.8,2-1.6,2.2-1.7c0.1-0.1,1-0.8,1.9-1.6c0.9-0.7,2.2-1.7,2.7-2.2c1.8-1.7,3-1.3,7.1,2.5
	c0.4,0.4,2.8,2.2,5.2,4.1c2.4,1.9,4.5,3.5,4.6,3.6c0.1,0.1,1.5,1.2,3.1,2.5c1.6,1.3,3.2,2.6,3.6,2.9c0.4,0.4,2.2,1.8,4,3.2
	c1.8,1.4,3.6,2.8,4,3.2c0.4,0.4,2.1,1.7,3.6,2.9c1.6,1.3,3,2.4,3.1,2.5c0.1,0.1,1,0.8,1.9,1.6c0.9,0.7,1.8,1.5,1.9,1.6
	c0.1,0.2,0.3,0.3,0.5,0.3c0.3,0,7.2-5.7,8-6.5c0.1-0.1,2.4-2,5-4.2c2.6-2.2,4.9-4.1,5-4.2c0.1-0.1,4.1-3.5,8.8-7.5
	c4.8-4,8.8-7.4,9.1-7.7c0.2-0.2,1.3-1.1,2.3-1.9c1-0.8,2-1.7,2.3-1.9c0.2-0.2,2-1.7,3.9-3.2c1.9-1.6,3.5-3,3.6-3.1
	c0.1-0.1,2.4-2,5-4.2c2.6-2.2,4.9-4.1,5-4.2c0.1-0.1,2.4-2,5-4.2c2.6-2.2,4.9-4.1,5-4.2c0.1-0.1,1.1-1,2.3-1.9s2.6-2.2,3.3-2.7
	c1.5-1.3,2.4-2.1,4.6-4c1-0.8,2-1.7,2.3-1.9c0.2-0.2,2-1.7,3.9-3.2c1.9-1.6,3.5-3,3.6-3.1c0.1-0.1,1.7-1.5,3.6-3.1
	c1.9-1.6,4.1-3.4,4.8-4.1c0.7-0.7,3.3-2.9,5.8-4.9l4.4-3.7l1.7,1.6C179.1,333.2,180.3,334.3,180.7,334.7"/>
<path id="path2" class="st2" d="M-52.8,274.1c0.4,0.1,1,0.1,1.3,0c0.4-0.1,0.1-0.2-0.7-0.2C-52.8,274-53.1,274-52.8,274.1
	 M256.8,274.1c0.5,0.1,1.3,0.1,1.7,0c0.5-0.1,0.1-0.2-0.9-0.2C256.8,274,256.4,274,256.8,274.1 M284.2,285.1c0,0.1,0.6,0.6,1.2,1.2
	l1.2,1.1l-1.1-1.2C284.5,285.1,284.2,284.8,284.2,285.1 M-47.4,290.3c0.6,0.1,1.4,0.1,1.9,0s0-0.2-1.1-0.2
	C-47.6,290.1-48,290.2-47.4,290.3 M-93,420.5c0,57.5,0,81.1,0.1,52.3c0.1-28.8,0.1-75.8,0-104.6C-92.9,339.4-93,363-93,420.5
	 M179.8,334.3c0,0.1,0.6,0.6,1.2,1.2l1.2,1.1l-1.1-1.2C180.1,334.2,179.8,334,179.8,334.3 M210.5,361.9c0,0.1,0.6,0.6,1.2,1.2
	l1.2,1.1l-1.1-1.2C210.8,361.9,210.5,361.6,210.5,361.9 M227,376.8c0.7,0.8,1.4,1.3,1.5,1.2c0.1-0.1,0.1-0.2,0-0.3
	c-0.1-0.1-0.8-0.6-1.5-1.2l-1.3-1.2L227,376.8 M257,403.9c0.5,0.7,1,1.1,1.1,1c0.1-0.1-0.3-0.6-0.9-1.2l-1.1-1L257,403.9
	 M286.3,554.6l-1.5,1.6l1.6-1.5c1.5-1.4,1.8-1.7,1.5-1.7C287.9,552.9,287.1,553.7,286.3,554.6 M-51,567.8c0.7,0.1,1.7,0.1,2.3,0
	c0.6-0.1,0-0.2-1.3-0.2C-51.2,567.7-51.7,567.7-51,567.8 M254.1,567.8c0.7,0.1,1.9,0.1,2.7,0c0.8-0.1,0.2-0.2-1.2-0.2
	C254.1,567.7,253.5,567.7,254.1,567.8"/>
<path id="path3" class="st3" d="M29.6,290.3c41,0.1,108.1,0.1,149.1,0c41-0.1,7.5-0.1-74.6-0.1S-11.4,290.2,29.6,290.3 M-20.3,314.8
	c0.7,0.1,1.7,0.1,2.3,0c0.6-0.1,0-0.2-1.3-0.2C-20.5,314.7-21,314.7-20.3,314.8 M-20.3,380.1c0.7,0.1,1.7,0.1,2.3,0
	c0.6-0.1,0-0.2-1.3-0.2C-20.5,379.9-21,380-20.3,380.1 M25.7,527.1c42.3,0.1,111.5,0.1,153.7,0c42.3-0.1,7.7-0.1-76.9-0.1
	C18.1,527-16.5,527.1,25.7,527.1"/>
<path id="path4" class="st4" d="M285.3,285.9c0,0.1,0.6,0.6,1.2,1.2l1.2,1.1l-1.1-1.2C285.7,285.9,285.3,285.6,285.3,285.9
	 M-69.2,298.1l-1.5,1.6l1.6-1.5c1.5-1.4,1.8-1.7,1.5-1.7C-67.6,296.5-68.4,297.2-69.2,298.1 M299,420.5c0,58,0,81.7,0.1,52.7
	c0.1-29,0.1-76.4,0-105.4C299,338.8,299,362.6,299,420.5 M282.5,420.5c0,55.8,0,78.7,0.1,50.8c0.1-27.9,0.1-73.6,0-101.5
	C282.5,341.8,282.5,364.7,282.5,420.5 M2,322.7c0,0.1,0.6,0.6,1.2,1.2l1.2,1.1l-1.1-1.2C2.4,322.7,2,322.4,2,322.7 M176.1,331.2
	c-0.2,0.3-0.1,0.3,0,0.2c0.2-0.2,0.9,0.2,1.5,0.8l1.2,1.1l-1.1-1.2C176.4,330.5,176.5,330.5,176.1,331.2 M-52.4,348.1
	c0,1.1,0.1,1.4,0.2,0.9c0.1-0.6,0.1-1.4,0-1.9C-52.3,346.6-52.4,347.1-52.4,348.1 M199.7,351.9c0,0.1,0.6,0.6,1.2,1.2l1.2,1.1
	l-1.1-1.2C200.1,351.9,199.7,351.6,199.7,351.9 M207.8,359.3c0.7,0.7,1.4,1.3,1.5,1.3c0.1,0-0.4-0.6-1.1-1.3
	c-0.7-0.7-1.4-1.3-1.5-1.3C206.6,357.9,207.1,358.5,207.8,359.3 M3.4,370.7l-1.9,2l2-1.9c1.1-1,2-2,2-2
	C5.5,368.5,5.1,368.8,3.4,370.7 M238.5,386.9c0.7,0.7,1.4,1.3,1.5,1.3c0.1,0-0.4-0.6-1.1-1.3c-0.7-0.7-1.4-1.3-1.5-1.3
	C237.3,385.6,237.8,386.2,238.5,386.9 M-52.4,490.1c0,20.2,0,36.8,0.2,36.9c0.3,0.2,0.3-25.7,0-60.4
	C-52.2,459.3-52.3,469.9-52.4,490.1 M-76.6,523c0,0.7,0.1,1,0.2,0.7c0.1-0.4,0.1-1,0-1.3C-76.5,522-76.6,522.3-76.6,523
	 M-70.1,542.7c0,0.1,0.6,0.6,1.2,1.2l1.2,1.1l-1.1-1.2C-69.8,542.7-70.1,542.4-70.1,542.7 M-50.3,551.3c0.5,0.1,1.3,0.1,1.7,0
	c0.5-0.1,0.1-0.2-0.9-0.2C-50.3,551.1-50.7,551.2-50.3,551.3"/>
</svg>
